<svg width="1890" height="1890" xmlns="http://www.w3.org/2000/svg" xmlns:xlink="http://www.w3.org/1999/xlink" overflow="hidden"><defs><clipPath id="clip0"><rect x="0" y="0" width="1890" height="1890"/></clipPath></defs><g clip-path="url(#clip0)"><rect x="0" y="0" width="1890" height="1890" fill="#FFFFFF"/><rect x="140" y="140" width="1610" height="1610"/><path d="M1220.11 1614.12C1211.14 1614.12 1203.66 1616.95 1197.67 1622.61 1191.68 1628.26 1188.5 1635.32 1188.13 1643.77L1250.87 1643.77C1250.8 1635.1 1247.88 1627.99 1242.11 1622.44 1236.34 1616.89 1229 1614.12 1220.11 1614.12ZM802.918 1606.85C793.803 1606.85 786.213 1609.35 780.148 1614.34 774.083 1619.34 769.544 1626.04 766.53 1634.45 763.516 1642.87 762.009 1652.25 762.009 1662.61 762.009 1672.9 763.516 1682.24 766.53 1690.66 769.544 1699.07 774.083 1705.74 780.148 1710.66 786.213 1715.58 793.803 1718.04 802.918 1718.04 811.96 1718.04 819.477 1715.58 825.468 1710.66 831.459 1705.74 835.943 1699.07 838.921 1690.66 841.898 1682.24 843.386 1672.9 843.386 1662.61 843.386 1652.25 841.898 1642.87 838.921 1634.45 835.943 1626.04 831.459 1619.34 825.468 1614.34 819.477 1609.35 811.96 1606.85 802.918 1606.85ZM617.502 1606.3C605.593 1606.3 595.926 1610.23 588.501 1618.09 581.077 1625.95 577.07 1635.28 576.482 1646.08L656.095 1646.08C656.022 1634.54 652.438 1625.03 645.344 1617.54 638.25 1610.04 628.969 1606.3 617.502 1606.3ZM1316.89 1577.42 1371.03 1577.42 1393.85 1685.86 1395.29 1685.86 1419.77 1577.42 1472.58 1577.42 1497.73 1685.09 1499.16 1685.09 1521.32 1577.42 1575.46 1577.42 1531.25 1746.69 1473.58 1746.69 1447.11 1648.06 1445.24 1648.06 1418.77 1746.69 1360.99 1746.69ZM1669.62 1575.22C1692.55 1575.22 1710.63 1580.01 1723.87 1589.6 1737.1 1599.19 1744.41 1612.36 1745.81 1629.11L1696.3 1630.43C1695.56 1625.07 1692.88 1620.68 1688.25 1617.26 1683.62 1613.85 1677.74 1612.14 1670.61 1612.14 1664.36 1612.14 1659.05 1613.37 1654.67 1615.83 1650.3 1618.29 1648.15 1621.69 1648.22 1626.02 1648.15 1629.26 1649.49 1632.1 1652.25 1634.56 1655 1637.02 1659.95 1638.99 1667.08 1640.46L1699.72 1646.63C1733.02 1653.02 1749.78 1668.3 1750 1692.47 1749.93 1704.08 1746.49 1714.18 1739.69 1722.78 1732.89 1731.38 1723.61 1738.04 1711.85 1742.78 1700.09 1747.52 1686.63 1749.89 1671.49 1749.89 1647.3 1749.89 1628.23 1744.91 1614.26 1734.96 1600.29 1725 1592.35 1711.65 1590.44 1694.9L1643.7 1693.58C1644.88 1699.75 1647.93 1704.45 1652.85 1707.68 1657.78 1710.92 1664.07 1712.53 1671.71 1712.53 1678.62 1712.53 1684.24 1711.25 1688.58 1708.67 1692.92 1706.1 1695.12 1702.69 1695.2 1698.43 1694.98 1691.3 1688.1 1686.41 1674.58 1683.77L1645.03 1678.15C1611.28 1671.9 1594.52 1655.56 1594.74 1629.11 1594.67 1612.14 1601.4 1598.91 1614.92 1589.44 1628.45 1579.96 1646.68 1575.22 1669.62 1575.22ZM1219.01 1575.22C1235.03 1575.22 1249.22 1578.54 1261.57 1585.19 1273.92 1591.84 1283.59 1601.59 1290.57 1614.45 1297.55 1627.31 1301.04 1643.03 1301.04 1661.62L1301.04 1675.06 1188.13 1675.06 1188.13 1676.5C1188.13 1686.85 1191.13 1695.19 1197.12 1701.51 1203.11 1707.83 1211.29 1710.99 1221.65 1710.99 1228.71 1710.99 1234.85 1709.5 1240.07 1706.53 1245.29 1703.55 1248.92 1699.27 1250.98 1693.69L1300.49 1695.12C1297.41 1711.72 1288.88 1725 1274.91 1734.96 1260.94 1744.91 1242.86 1749.89 1220.66 1749.89 1194.05 1749.89 1173.12 1742.14 1157.86 1726.64 1142.61 1711.14 1134.98 1689.83 1134.98 1662.72 1134.98 1645.23 1138.44 1629.93 1145.35 1616.82 1152.26 1603.71 1162 1593.49 1174.57 1586.18 1187.14 1578.87 1201.95 1575.22 1219.01 1575.22ZM802.698 1575.22C819.238 1575.22 833.591 1578.87 845.757 1586.18 857.923 1593.49 867.314 1603.71 873.93 1616.82 880.546 1629.93 883.855 1645.23 883.855 1662.72 883.855 1680.13 880.546 1695.39 873.93 1708.51 867.314 1721.62 857.923 1731.82 845.757 1739.09 833.591 1746.36 819.238 1750 802.698 1750 786.158 1750 771.823 1746.36 759.693 1739.09 747.564 1731.82 738.173 1721.62 731.52 1708.51 724.867 1695.39 721.541 1680.13 721.541 1662.72 721.541 1645.23 724.867 1629.93 731.52 1616.82 738.173 1603.71 747.564 1593.49 759.693 1586.18 771.823 1578.87 786.158 1575.22 802.698 1575.22ZM616.95 1575.22C630.844 1575.22 643.672 1578.21 655.434 1584.2 667.195 1590.19 676.623 1599.48 683.717 1612.08 690.811 1624.68 694.358 1640.9 694.358 1660.74L694.358 1672.97 576.372 1672.97C576.592 1687.44 580.617 1698.72 588.446 1706.8 596.275 1714.88 606.659 1718.92 619.597 1718.92 628.197 1718.92 635.641 1717.07 641.926 1713.36 648.211 1709.65 652.714 1704.23 655.434 1697.1L692.704 1701.29C689.175 1715.98 680.961 1727.78 668.059 1736.67 655.158 1745.56 638.82 1750 619.045 1750 602.064 1750 587.417 1746.44 575.104 1739.31 562.791 1732.18 553.326 1722.12 546.71 1709.11 540.094 1696.11 536.786 1680.76 536.786 1663.05 536.786 1645.64 540.094 1630.34 546.71 1617.15 553.326 1603.96 562.644 1593.68 574.663 1586.29 586.682 1578.91 600.778 1575.22 616.95 1575.22ZM914.813 1521 961.787 1521 1050.66 1651.04 1052.54 1651.04 1052.54 1521 1107.01 1521 1107.01 1746.69 1060.7 1746.69 970.829 1616.44 969.395 1616.44 969.395 1746.69 914.813 1746.69ZM353.098 1521 392.133 1521 392.133 1606.19 394.118 1606.19C398.014 1596.56 404.134 1588.99 412.477 1583.48 420.821 1577.97 431.498 1575.22 444.51 1575.22 462.079 1575.22 476.193 1580.73 486.852 1591.75 497.512 1602.77 502.841 1618.49 502.841 1638.92L502.841 1746.69 462.924 1746.69 462.924 1645.09C462.924 1633.7 460.002 1624.83 454.158 1618.47 448.314 1612.12 440.136 1608.94 429.624 1608.94 418.965 1608.94 410.198 1612.3 403.325 1619.02 396.452 1625.75 393.015 1635.24 393.015 1647.51L393.015 1746.69 353.098 1746.69ZM140 1521 320.177 1521 320.177 1555.27 250.378 1555.27 250.378 1746.69 209.799 1746.69 209.799 1555.27 140 1555.27Z" fill="#FFFFFF" fill-rule="evenodd"/></g></svg>